<svg width="64" height="64" viewBox="0 0 64 64" fill="none" xmlns="http://www.w3.org/2000/svg">
<path d="M58.6679 32.2661C58.6679 37.5405 57.1038 42.6964 54.1735 47.0819C51.2432 51.4674 47.0783 54.8855 42.2054 56.9039C37.3325 58.9224 31.9705 59.4505 26.7975 58.4215C21.6244 57.3925 16.8727 54.8526 13.1431 51.1231C9.41355 47.3935 6.87368 42.6418 5.8447 37.4687C4.81572 32.2957 5.34383 26.9337 7.36225 22.0608C9.38067 17.1879 12.7988 13.0229 17.1842 10.0926C21.5697 7.16236 26.7257 5.59832 32.0001 5.59832C35.5021 5.59832 38.9699 6.2881 42.2054 7.62828C45.4409 8.96846 48.3807 10.9328 50.8571 13.4091C53.3334 15.8855 55.2977 18.8253 56.6379 22.0608C57.9781 25.2963 58.6679 28.764 58.6679 32.2661ZM44.6384 16.7714C36.317 13.6635 27.1542 13.6587 18.8296 16.7579C18.6585 16.8134 18.5004 16.9028 18.3648 17.0209C18.2292 17.139 18.1189 17.2833 18.0405 17.4452C17.9621 17.607 17.9172 17.783 17.9086 17.9626C17.8999 18.1422 17.9277 18.3217 17.9902 18.4903C18.0527 18.6589 18.1486 18.8132 18.2722 18.9438C18.3958 19.0743 18.5446 19.1786 18.7095 19.2502C18.8744 19.3219 19.0522 19.3594 19.232 19.3606C19.4118 19.3618 19.59 19.3267 19.7559 19.2573C27.4804 16.38 35.9832 16.3836 43.7053 19.2674C43.8712 19.3387 44.0499 19.3755 44.2305 19.3757C44.4111 19.376 44.5898 19.3395 44.7559 19.2686C44.9219 19.1977 45.0719 19.0938 45.1966 18.9632C45.3213 18.8326 45.4182 18.6781 45.4815 18.5089C45.5447 18.3398 45.5729 18.1596 45.5644 17.9792C45.556 17.7988 45.5109 17.622 45.4321 17.4596C45.3533 17.2971 45.2423 17.1523 45.1059 17.034C44.9694 16.9157 44.8104 16.8264 44.6384 16.7714ZM43.1731 21.7566C43.1731 21.7566 42.3984 21.4535 41.4957 21.1672C35.2581 19.1875 28.5665 19.1475 22.3058 21.0526C21.2952 21.3558 20.2982 21.7432 20.2982 21.7432C20.168 21.7925 20.049 21.8675 19.9484 21.9638C19.8478 22.0601 19.7676 22.1756 19.7126 22.3036C19.6576 22.4315 19.6289 22.5692 19.6282 22.7084C19.6275 22.8477 19.6549 22.9857 19.7087 23.1141L31.3096 51.1629C31.5352 51.7019 31.899 51.7019 32.1247 51.1629L43.7559 23.1276C43.8094 22.9993 43.8368 22.8615 43.8364 22.7225C43.836 22.5834 43.8078 22.4459 43.7535 22.3179C43.6993 22.1899 43.6199 22.074 43.5203 21.977C43.4206 21.8801 43.3026 21.8074 43.1731 21.7566ZM26.5264 29.1773C27.2099 29.1773 27.8781 28.9746 28.4464 28.5948C29.0148 28.2151 29.4577 27.6753 29.7193 27.0438C29.9809 26.4123 30.0493 25.7174 29.916 25.047C29.7826 24.3766 29.4535 23.7608 28.9702 23.2775C28.4868 22.7942 27.871 22.465 27.2006 22.3317C26.5302 22.1983 25.8353 22.2668 25.2038 22.5283C24.5723 22.7899 24.0326 23.2329 23.6528 23.8012C23.2731 24.3695 23.0704 25.0377 23.0704 25.7213C23.0704 26.6379 23.4345 27.5169 24.0826 28.165C24.7308 28.8132 25.6098 29.1773 26.5264 29.1773ZM31.734 42.1524C32.4176 42.1524 33.086 41.9496 33.6544 41.5697C34.2228 41.1898 34.6657 40.6499 34.9272 40.0182C35.1887 39.3865 35.2569 38.6914 35.1233 38.0209C34.9897 37.3505 34.6602 36.7347 34.1765 36.2515C33.6929 35.7683 33.0768 35.4394 32.4061 35.3064C31.7355 35.1734 31.0405 35.2424 30.4091 35.5045C29.7776 35.7666 29.2381 36.21 28.8588 36.7788C28.4794 37.3476 28.2773 38.0161 28.278 38.6998C28.2789 39.6158 28.6434 40.494 29.2914 41.1414C29.9394 41.7888 30.818 42.1524 31.734 42.1524ZM35.6413 32.8994C36.3249 32.8994 36.9931 32.6967 37.5614 32.3169C38.1297 31.9372 38.5727 31.3974 38.8343 30.7659C39.0958 30.1344 39.1643 29.4395 39.0309 28.7691C38.8976 28.0987 38.5684 27.4829 38.0851 26.9996C37.6018 26.5163 36.986 26.1871 36.3156 26.0538C35.6452 25.9204 34.9503 25.9889 34.3188 26.2504C33.6873 26.512 33.1475 26.955 32.7678 27.5233C32.388 28.0917 32.1853 28.7598 32.1853 29.4434C32.1849 29.8972 32.2739 30.3467 32.4471 30.7662C32.6204 31.1856 32.8746 31.5669 33.1952 31.8881C33.5158 32.2093 33.8965 32.4643 34.3157 32.6384C34.7348 32.8125 35.1841 32.9023 35.638 32.9027L35.6413 32.8994Z" fill="#E31836"/>
</svg>
